<svg width="32" height="32" viewBox="0 0 16 16" fill="none" xmlns="http://www.w3.org/2000/svg">
<path d="M7.72457 3.8811C5.58861 3.8811 3.81882 5.62038 3.81882 7.78685C3.81882 9.95333 5.5581 11.6926 7.72457 11.6926C9.89104 11.6926 11.6303 9.92281 11.6303 7.78685C11.6303 5.6509 9.86053 3.8811 7.72457 3.8811ZM7.72457 10.289C6.35145 10.289 5.22245 9.15997 5.22245 7.78685C5.22245 6.41374 6.35145 5.28473 7.72457 5.28473C9.09769 5.28473 10.2267 6.41374 10.2267 7.78685C10.2267 9.15997 9.09769 10.289 7.72457 10.289Z" fill="white"/>
<path d="M11.7828 4.67433C12.2716 4.67433 12.6677 4.27815 12.6677 3.78944C12.6677 3.30072 12.2716 2.90454 11.7828 2.90454C11.2941 2.90454 10.8979 3.30072 10.8979 3.78944C10.8979 4.27815 11.2941 4.67433 11.7828 4.67433Z" fill="white"/>
<path d="M14.0714 1.50106C13.2781 0.677191 12.149 0.25 10.8675 0.25H4.58165C1.92696 0.25 0.157166 2.01979 0.157166 4.67448V10.9298C0.157166 12.2419 0.584357 13.3709 1.43874 14.1948C2.26261 14.9881 3.3611 15.3848 4.61216 15.3848H10.837C12.149 15.3848 13.2475 14.9576 14.0409 14.1948C14.8648 13.4014 15.292 12.2724 15.292 10.9603V4.67448C15.292 3.39291 14.8648 2.29442 14.0714 1.50106ZM13.9494 10.9603C13.9494 11.9062 13.6137 12.6691 13.0645 13.1878C12.5152 13.7065 11.7524 13.9812 10.837 13.9812H4.61216C3.69675 13.9812 2.93391 13.7065 2.38466 13.1878C1.83542 12.6386 1.5608 11.8757 1.5608 10.9298V4.67448C1.5608 3.75907 1.83542 2.99623 2.38466 2.44699C2.9034 1.92825 3.69675 1.65363 4.61216 1.65363H10.898C11.8134 1.65363 12.5762 1.92825 13.1255 2.4775C13.6442 3.02675 13.9494 3.78959 13.9494 4.67448V10.9603Z" fill="white"/>
</svg>
